{"title":"Siccin 4 1080p Eng Subbed (Siccin Film)","magnet":"magnet:?xt=urn:btih:5e42c27ec3f22ba0eaccdf4435ebab46f54707c9&dn=Siccin+4+1080p+Eng+Subbed+%28Siccin+Film%29&tr=udp%3A%2F%2Ftracker.leechers-paradise.org%3A6969&tr=udp%3A%2F%2Fzer0day.ch%3A1337&tr=udp%3A%2F%2Fopen.demonii.com%3A1337&tr=udp%3A%2F%2Ftracker.coppersurfer.tk%3A6969&tr=udp%3A%2F%2Fexodus.desync.com%3A6969","uploader":"poizoned","categoryP":"video","categoryS":"movies","size":"1366981106","seeders":"1","leechers":"3","description":"Siccin 4 with Eng sub- soft coded\r\nSummary:\r\nDue to financial problems, Yilmaz family moves in their grandmother Saadet&apos;s house. But Saadet is not living alone as known. Saadet&apos;s old house, which is also a tomb of her deceased husband, is inhabited by beings from another dimension. And this beings don&apos;t want anyone in the house, but Saadet.\r\n\r\nMedia info:\r\n[code]\r\nFormat                                   : Matroska\r\nFormat version                           : Version 4 / Version 2\r\nFile size                                : 1.27 GiB\r\nDuration                                 : 1 h 34 min\r\nOverall bit rate                         : 1 925 kb/s\r\nEncoded date                             : UTC 2018-05-28 08:38:17\r\nWriting application                      : mkvmerge v23.0.0 (&apos;The Bride Said No&apos;) 64-bit\r\nWriting library                          : libebml v1.3.6 + libmatroska v1.4.9 / IDMmkvlib0.1\r\nLanguage                                 : und\r\n\r\nVideo\r\nID                                       : 1\r\nFormat                                   : VP9\r\nCodec ID                                 : V_VP9\r\nDuration                                 : 1 h 34 min\r\nBit rate                                 : 1 802 kb/s\r\nWidth                                    : 2 048 pixels\r\nHeight                                   : 1 152 pixels\r\nDisplay aspect ratio                     : 16:9\r\nFrame rate mode                          : Constant\r\nFrame rate                               : 24.000 FPS\r\nBits/(Pixel*Frame)                       : 0.032\r\nStream size                              : 1.19 GiB (94%)\r\nDefault                                  : Yes\r\nForced                                   : No\r\n\r\nAudio\r\nID                                       : 2\r\nFormat                                   : Opus\r\nCodec ID                                 : A_OPUS\r\nDuration                                 : 1 h 34 min\r\nBit rate                                 : 120 kb/s\r\nChannel(s)                               : 2 channels\r\nChannel positions                        : Front: L R\r\nSampling rate                            : 48.0 kHz\r\nFrame rate                               : 50.000 FPS (960 SPF)\r\nCompression mode                         : Lossy\r\nStream size                              : 81.4 MiB (6%)\r\nDefault                                  : Yes\r\nForced                                   : No\r\n\r\nText\r\nID                                       : 3\r\nFormat                                   : UTF-8\r\nCodec ID                                 : S_TEXT/UTF8\r\nCodec ID/Info                            : UTF-8 Plain Text\r\nDuration                                 : 1 h 16 min\r\nBit rate                                 : 30 b/s\r\nCount of elements                        : 544\r\nStream size                              : 16.9 KiB (0%)\r\nDefault                                  : Yes\r\nForced                                   : No\r\n[/code]\r\nScreens: <a href=\"\nhttps://keepimg.com/image/Nnz\" rel=\"nofollow\" target=\"_NEW\">\nhttps://keepimg.com/image/Nnz</a> <a href=\"\nhttps://keepimg.com/image/NnY\" rel=\"nofollow\" target=\"_NEW\">\nhttps://keepimg.com/image/NnY</a> <a href=\"\nhttps://keepimg.com/image/Nna\" rel=\"nofollow\" target=\"_NEW\">\nhttps://keepimg.com/image/Nna</a> <a href=\"\nhttps://keepimg.com/image/Nnd\" rel=\"nofollow\" target=\"_NEW\">\nhttps://keepimg.com/image/Nnd</a> <a href=\"\nhttps://keepimg.com/image/Nnl\" rel=\"nofollow\" target=\"_NEW\">\nhttps://keepimg.com/image/Nnl</a> <a href=\"\nhttps://keepimg.com/image/Nn1\" rel=\"nofollow\" target=\"_NEW\">\nhttps://keepimg.com/image/Nn1</a>","last_updated":"2018-05-28T12:07:37.749Z","parsed":{"xt":"urn:btih:5e42c27ec3f22ba0eaccdf4435ebab46f54707c9","dn":"Siccin 4 1080p Eng Subbed (Siccin Film)","tr":["udp://exodus.desync.com:6969","udp://open.demonii.com:1337","udp://tracker.coppersurfer.tk:6969","udp://tracker.leechers-paradise.org:6969","udp://zer0day.ch:1337"],"infoHash":"5e42c27ec3f22ba0eaccdf4435ebab46f54707c9","infoHashBuffer":{"type":"Buffer","data":[94,66,194,126,195,242,43,160,234,204,223,68,53,235,171,70,245,71,7,201]},"name":"Siccin 4 1080p Eng Subbed (Siccin Film)","announce":["udp://exodus.desync.com:6969","udp://open.demonii.com:1337","udp://tracker.coppersurfer.tk:6969","udp://tracker.leechers-paradise.org:6969","udp://zer0day.ch:1337"],"urlList":[]}}